<?xml version="1.0" encoding="UTF-8"?>
<svg width="18.567" height="29.121" version="1.1" viewBox="0 0 18.567 29.121" xmlns="http://www.w3.org/2000/svg">
 <g transform="translate(-56.555 -8.2144)">
  <g aria-label="?">
   <path d="m64.107 30.285c-0.15694-2.3709 0.22472-4.9223 1.8356-6.7701 1.5496-1.9562 3.8865-3.2153 5.1481-5.4055 1.0894-2.1851-0.03367-4.8939-2.0288-6.1252-2.4973-1.655-6.3992-0.95638-7.8122 1.8045-0.53302 0.96094-0.81895 2.038-0.9903 3.1174-1.2346-0.02994-2.4692-0.05987-3.7038-0.08981 0.3473-3.019 1.7671-6.226 4.6455-7.5954 2.6885-1.2838 5.9069-1.2998 8.7045-0.36131 3.0404 1.066 5.4081 4.1097 5.2137 7.4008 0.01313 2.3893-1.4678 4.4166-3.1387 5.9814-1.555 1.6137-3.7975 2.8813-4.2618 5.249-0.41784 0.81251 0.23927 2.5558-0.57822 2.7942-1.0112 2e-6 -2.0224 3e-6 -3.0335 4e-6zm-0.21484 7.0508v-4.0039h4.0039v4.0039h-4.0039z" fill="#262626"/>
  </g>
 </g>
</svg>
