<?xml version="1.0" encoding="UTF-8" standalone="no"?>
<svg
   width="102"
   height="150"
   version="1.1"
   viewBox="0 0 102 150"
   id="svg839"
   sodipodi:docname="random.svg"
   inkscape:version="1.1.1 (1:1.1+202109281949+c3084ef5ed)"
   xmlns:inkscape="http://www.inkscape.org/namespaces/inkscape"
   xmlns:sodipodi="http://sodipodi.sourceforge.net/DTD/sodipodi-0.dtd"
   xmlns="http://www.w3.org/2000/svg"
   xmlns:svg="http://www.w3.org/2000/svg">
  <defs
     id="defs843" />
  <sodipodi:namedview
     id="namedview841"
     pagecolor="#ffffff"
     bordercolor="#666666"
     borderopacity="1.0"
     inkscape:pageshadow="2"
     inkscape:pageopacity="0.0"
     inkscape:pagecheckerboard="0"
     showgrid="false"
     inkscape:zoom="1.2084104"
     inkscape:cx="256.1216"
     inkscape:cy="215.98623"
     inkscape:window-width="1920"
     inkscape:window-height="1007"
     inkscape:window-x="1366"
     inkscape:window-y="0"
     inkscape:window-maximized="1"
     inkscape:current-layer="svg839" />
  <g
     transform="matrix(0.19933884,0,0,0.34658508,2.7776072,-18.806886)"
     id="g837">
    <path
       d="m 412.3,486.87 c -1.1952,-0.23048 -3.3327,-1.5787 -4.75,-2.996 -2.0124,-2.0124 -2.5769,-3.5714 -2.5769,-7.1169 v -4.54 l 56.421,-56.647 h -116.35 l -7.505,-2.3833 c -8.8633,-2.8146 -11.372,-4.772 -20.986,-16.374 -3.985,-4.8088 -53.565,-58.251 -110.18,-118.76 -56.612,-60.509 -105.01,-112.71 -107.55,-116 -2.54,-3.29 -5.4587,-6.6935 -6.4882,-7.5611 -4.2158,-3.5528 -9.2369,-3.9225 -53.27,-3.9225 -47.423,0 -48.566,-0.13024 -51.535,-5.8716 -2.0506,-3.9655 -1.9714,-5.9519 0.39171,-9.8276 3.1894,-5.2307 5.3853,-5.4347 54.328,-5.0465 42.403,0.3363 44.485,0.44088 50.824,2.5534 9.0589,3.0189 12.359,5.478 19.768,14.729 3.5075,4.3799 53.333,58.188 110.72,119.57 57.39,61.386 106.73,114.71 109.65,118.5 8.3456,10.845 4.4143,10.293 73.732,10.345 l 58.48,0.0438 -33.23,-33.285 c -31.453,-31.505 -33.23,-33.479 -33.23,-36.923 0,-7.2102 7.0864,-12.095 13.5,-9.3053 4.4804,1.9488 84.217,82.372 85.05,85.783 0.37208,1.5232 0.15634,4.0252 -0.47942,5.5601 -1.2856,3.1037 -76.967,79.171 -78.769,79.171 -0.62592,0 -1.7373,0.16182 -2.4698,0.35959 -0.73249,0.19777 -2.3097,0.17101 -3.5049,-0.0595 z M -9.73,413.82 c -4.9158,-3.912 -5.2287,-11.089 -0.67022,-15.374 l 2.5274,-2.3756 46.171,-0.51507 c 54.206,-0.60471 51.418,-0.10943 59.531,-10.572 6.5169,-8.4041 83.175,-90.59 84.127,-90.194 1.5952,0.66384 13.165,13.813 12.854,14.609 -0.18786,0.48224 -16.948,18.606 -37.245,40.275 -20.297,21.669 -39.964,43.223 -43.705,47.898 -7.2718,9.0879 -12.401,13.053 -20.392,15.765 -4.3797,1.4865 -10.955,1.7303 -53,1.9656 -44.446,0.24866 -48.163,0.139 -50.199,-1.4811 z M 242.58,244.68 c -3.764,-3.7931 -6.6779,-7.393 -6.4752,-7.9997 0.20268,-0.60673 17.305,-19.217 38.005,-41.355 20.7,-22.139 40.5,-43.835 44,-48.213 7.3687,-9.2182 10.706,-11.715 19.776,-14.799 6.4804,-2.203 7.5253,-2.2438 64.534,-2.5212 l 57.947,-0.28203 -30.697,-30.756 c -28.995,-29.051 -30.697,-30.957 -30.697,-34.392 0,-7.2074 7.0877,-12.092 13.5,-9.3026 4.3763,1.9035 84.216,82.366 85.027,85.691 0.35944,1.4728 0.34044,3.7228 -0.0422,5 -0.93227,3.1116 -75.166,77.675 -78.985,79.336 -6.7779,2.9471 -13.5,-1.699 -13.5,-9.331 v -4.5447 l 60.487,-60.698 -60.493,0.28028 c -51.392,0.23811 -60.94,0.50595 -63.463,1.7803 -1.6334,0.825 -5.715,4.9301 -9.07,9.1225 -4.6319,5.7878 -48.324,53.123 -80.885,87.63 l -2.1251,2.2521 z"
       fill="#262626"
       id="path835" />
  </g>
</svg>
