<?xml version="1.0" encoding="UTF-8"?>
<svg width="213.82" height="151.02" version="1.1" viewBox="0 0 213.82 151.02" xmlns="http://www.w3.org/2000/svg">
 <g transform="translate(-25.632 -26.467)">
  <g transform="translate(23.013 7.9987)" fill="#262626">
   <path d="m177.44 158.48v-11c-12.167-0.13968-24.449 0.27706-36.545-0.20685-3.9384-1.3342-7.4422-3.3042-9.9966-6.6635-7.4861-7.5985-14.972-15.197-22.458-22.795 0.27811-3.2374-0.52626-6.9231 0.3702-9.9044 2.3811-1.9904 4.315-5.0603 6.9533-6.4298 3.2991-0.094 6.6364-0.34684 9.3918 1.8251 6.9386 6.2157 13.132 13.44 19.785 20.042 5.1513 1.7271 10.421 2.5501 15.853 2.1257 5.549 3e-3 11.098 5e-3 16.647 8e-3v-23.068c12.833 11.068 25.667 22.136 38.5 33.204 0.26171 3.3204-4.1228 4.5096-5.9518 6.8711-10.452 8.9974-20.905 17.994-31.358 26.991-2.708-0.30641-0.45122-5.5775-1.19-7.8531v-3.1469zm-167.5-11.945c-2.6317-0.89524-5.0206-3.4961-5.8538-6.014 0.19988-3.2643-2.3801-7.4137 0.86923-9.707 2.2475-2.1498 3.761-5.8906 7.4554-4.904 13.852-0.30991 27.705-0.61983 41.557-0.92974 5.0403-2.6384 9.0008-6.5895 12.753-10.794 22.912-23.839 45.824-47.677 68.737-71.516 4.012-1.7693 8.1732-2.6573 12.564-2.1897h29.354c0.1885-7.3384 0.377-14.677 0.5655-22.015 12.833 11.02 25.667 22.04 38.5 33.06-0.92126 2.847-4.6937 4.3842-6.7523 6.7087-10.583 9.0873-21.165 18.175-31.748 27.262-0.1885-7.3384-0.377-14.677-0.5655-22.015h-29.198c-3.9404 2.1914-7.686 4.6068-10.165 8.4788-23.17 24.422-46.729 48.496-70.071 72.763-3.7113 1.7932-7.4546 3.4291-11.671 2.7448-14.925-0.17099-29.954 0.18739-44.813-0.31172-0.50516-0.20675-1.0103-0.4135-1.5155-0.62025zm72.292-61.515c-5.2385-0.989-7.7462-6.2791-11.576-9.4864-3.9053-4.0232-7.8106-8.0465-11.716-12.07-14.495-0.092972-29.041 0.19145-43.504-0.13447-3.5683-1.152-7.7764-1.2537-9.8624-4.8391-2.4786-1.808-2.7057-5.2583-2.7494-7.9922 1.261-3.17 2.2445-6.551 5.5415-8.1732 2.9794-3.34 7.8286-1.2784 11.768-1.8442 14.878 0.12366 29.845-0.24628 44.667 0.18362 3.7633 0.91764 6.7971 2.9842 9.2624 5.9463 8.0662 7.3813 15.111 15.737 22.378 23.883-0.43896 3.1428 0.88531 6.9477-0.68921 9.664-2.0545 2.4365-3.9026 5.2002-7.3918 5.3628-2.2439 1.1959-3.9403 0.31753-6.1268-0.50021z" fill="#262626"/>
  </g>
 </g>
</svg>
