<?xml version="1.0" encoding="UTF-8" standalone="no"?>
<svg
   width="102"
   height="150"
   version="1.1"
   viewBox="0 0 101.99999 149.99999"
   id="svg909"
   sodipodi:docname="reset.png.svg"
   inkscape:version="1.1.1 (1:1.1+202109281949+c3084ef5ed)"
   xmlns:inkscape="http://www.inkscape.org/namespaces/inkscape"
   xmlns:sodipodi="http://sodipodi.sourceforge.net/DTD/sodipodi-0.dtd"
   xmlns="http://www.w3.org/2000/svg"
   xmlns:svg="http://www.w3.org/2000/svg">
  <defs
     id="defs913" />
  <sodipodi:namedview
     id="namedview911"
     pagecolor="#ffffff"
     bordercolor="#666666"
     borderopacity="1.0"
     inkscape:pageshadow="2"
     inkscape:pageopacity="0.0"
     inkscape:pagecheckerboard="0"
     showgrid="false"
     inkscape:zoom="1.9612254"
     inkscape:cx="124.15707"
     inkscape:cy="120.84282"
     inkscape:window-width="1920"
     inkscape:window-height="1007"
     inkscape:window-x="1366"
     inkscape:window-y="0"
     inkscape:window-maximized="1"
     inkscape:current-layer="svg909" />
  <path
     d="M 44.742898,149.247 C -6.3284883,137.38048 -16.796712,38.832246 29.630282,6.9776279 67.809671,-19.214605 110.67538,32.519875 100.47319,92.481199 94.295045,128.79464 68.742016,154.82422 44.742092,149.24641 Z M 61.9415,135.92851 C 91.677385,124.2335 103.58867,71.308462 84.526581,35.568124 65.226676,-0.62288714 25.869058,5.9106809 12.232554,47.568905 -3.494772,95.618159 26.929585,149.69768 61.9415,135.9291 Z M 46.624115,111.7921 C 33.416498,108.61486 20.265313,81.577525 26.634524,70.695737 c 2.56022,-4.373889 6.190239,-0.910394 6.818252,6.50577 1.673827,19.760392 16.455709,29.807073 27.469715,18.670972 13.978726,-14.134084 7.014556,-46.561802 -9.999834,-46.561802 -5.192997,0 -7.019797,1.220483 -3.975668,2.656011 4.004529,1.888447 5.353426,6.65422 2.901798,10.251911 C 46.9954,66.40524 29.963193,57.355358 29.963193,51.652636 c 0,-3.615316 4.837473,-22.120211 6.271663,-23.992099 3.728695,-4.866021 7.231419,1.22202 5.307071,9.224 -0.430297,1.789383 -0.687871,3.253477 -0.572426,3.253477 0.115444,0 0.836369,-0.349484 1.602077,-0.776612 8.364502,-4.665998 19.713475,-0.793527 26.391452,9.005169 14.673652,21.529961 6.313181,58.710439 -14.277416,63.496319 -3.923306,0.91199 -3.975425,0.91152 -8.061781,-0.0715 z"
     fill="#262626"
     id="path907"
     style="stroke-width:0.488263" />
</svg>
